<svg width="185" height="327" viewBox="0 0 185 327" fill="none" xmlns="http://www.w3.org/2000/svg">
<g filter="url(#filter0_d)">
<rect x="36" y="12" width="113" height="255" fill="#EEECEC"/>
</g>
<rect x="27" y="3" width="137" height="273" fill="#FF8FE6"/>
<path d="M48 250H102" stroke="#1C2A39" stroke-width="2"/>
<path d="M96 244L103 250L96 256" stroke="#1C2A39" stroke-width="2"/>
<path d="M52.104 158.776H48.072V156.4H59.052V158.776H55.02V169H52.104V158.776ZM66.5472 169.216C65.2392 169.216 64.0572 168.934 63.0012 168.37C61.9572 167.806 61.1352 167.032 60.5352 166.048C59.9472 165.052 59.6532 163.936 59.6532 162.7C59.6532 161.464 59.9472 160.354 60.5352 159.37C61.1352 158.374 61.9572 157.594 63.0012 157.03C64.0572 156.466 65.2392 156.184 66.5472 156.184C67.8552 156.184 69.0312 156.466 70.0752 157.03C71.1192 157.594 71.9412 158.374 72.5412 159.37C73.1412 160.354 73.4412 161.464 73.4412 162.7C73.4412 163.936 73.1412 165.052 72.5412 166.048C71.9412 167.032 71.1192 167.806 70.0752 168.37C69.0312 168.934 67.8552 169.216 66.5472 169.216ZM66.5472 166.732C67.2912 166.732 67.9632 166.564 68.5632 166.228C69.1632 165.88 69.6312 165.4 69.9672 164.788C70.3152 164.176 70.4892 163.48 70.4892 162.7C70.4892 161.92 70.3152 161.224 69.9672 160.612C69.6312 160 69.1632 159.526 68.5632 159.19C67.9632 158.842 67.2912 158.668 66.5472 158.668C65.8032 158.668 65.1312 158.842 64.5312 159.19C63.9312 159.526 63.4572 160 63.1092 160.612C62.7732 161.224 62.6052 161.92 62.6052 162.7C62.6052 163.48 62.7732 164.176 63.1092 164.788C63.4572 165.4 63.9312 165.88 64.5312 166.228C65.1312 166.564 65.8032 166.732 66.5472 166.732ZM81.0867 156.4C82.2027 156.4 83.1687 156.586 83.9847 156.958C84.8127 157.33 85.4487 157.858 85.8927 158.542C86.3367 159.226 86.5587 160.036 86.5587 160.972C86.5587 161.896 86.3367 162.706 85.8927 163.402C85.4487 164.086 84.8127 164.614 83.9847 164.986C83.1687 165.346 82.2027 165.526 81.0867 165.526H78.5487V169H75.6327V156.4H81.0867ZM80.9247 163.15C81.8007 163.15 82.4667 162.964 82.9227 162.592C83.3787 162.208 83.6067 161.668 83.6067 160.972C83.6067 160.264 83.3787 159.724 82.9227 159.352C82.4667 158.968 81.8007 158.776 80.9247 158.776H78.5487V163.15H80.9247ZM53.562 178.4V191H50.646V180.74H48.126V178.4H53.562ZM61.1508 191.216C60.1068 191.216 59.1768 190.958 58.3608 190.442C57.5448 189.926 56.9028 189.182 56.4348 188.21C55.9788 187.226 55.7508 186.056 55.7508 184.7C55.7508 183.344 55.9788 182.18 56.4348 181.208C56.9028 180.224 57.5448 179.474 58.3608 178.958C59.1768 178.442 60.1068 178.184 61.1508 178.184C62.1948 178.184 63.1248 178.442 63.9408 178.958C64.7568 179.474 65.3928 180.224 65.8488 181.208C66.3168 182.18 66.5508 183.344 66.5508 184.7C66.5508 186.056 66.3168 187.226 65.8488 188.21C65.3928 189.182 64.7568 189.926 63.9408 190.442C63.1248 190.958 62.1948 191.216 61.1508 191.216ZM61.1508 188.75C61.9188 188.75 62.5188 188.42 62.9508 187.76C63.3948 187.1 63.6168 186.08 63.6168 184.7C63.6168 183.32 63.3948 182.3 62.9508 181.64C62.5188 180.98 61.9188 180.65 61.1508 180.65C60.3948 180.65 59.7948 180.98 59.3508 181.64C58.9188 182.3 58.7028 183.32 58.7028 184.7C58.7028 186.08 58.9188 187.1 59.3508 187.76C59.7948 188.42 60.3948 188.75 61.1508 188.75ZM73.3676 191.216C72.3236 191.216 71.3936 190.958 70.5776 190.442C69.7616 189.926 69.1196 189.182 68.6516 188.21C68.1956 187.226 67.9676 186.056 67.9676 184.7C67.9676 183.344 68.1956 182.18 68.6516 181.208C69.1196 180.224 69.7616 179.474 70.5776 178.958C71.3936 178.442 72.3236 178.184 73.3676 178.184C74.4116 178.184 75.3416 178.442 76.1576 178.958C76.9736 179.474 77.6096 180.224 78.0656 181.208C78.5336 182.18 78.7676 183.344 78.7676 184.7C78.7676 186.056 78.5336 187.226 78.0656 188.21C77.6096 189.182 76.9736 189.926 76.1576 190.442C75.3416 190.958 74.4116 191.216 73.3676 191.216ZM73.3676 188.75C74.1356 188.75 74.7356 188.42 75.1676 187.76C75.6116 187.1 75.8336 186.08 75.8336 184.7C75.8336 183.32 75.6116 182.3 75.1676 181.64C74.7356 180.98 74.1356 180.65 73.3676 180.65C72.6116 180.65 72.0116 180.98 71.5676 181.64C71.1356 182.3 70.9196 183.32 70.9196 184.7C70.9196 186.08 71.1356 187.1 71.5676 187.76C72.0116 188.42 72.6116 188.75 73.3676 188.75ZM58.746 206.448C59.466 206.676 60.03 207.06 60.438 207.6C60.846 208.128 61.05 208.782 61.05 209.562C61.05 210.666 60.618 211.518 59.754 212.118C58.902 212.706 57.654 213 56.01 213H49.494V200.4H55.65C57.186 200.4 58.362 200.694 59.178 201.282C60.006 201.87 60.42 202.668 60.42 203.676C60.42 204.288 60.27 204.834 59.97 205.314C59.682 205.794 59.274 206.172 58.746 206.448ZM52.392 202.596V205.566H55.29C56.01 205.566 56.556 205.44 56.928 205.188C57.3 204.936 57.486 204.564 57.486 204.072C57.486 203.58 57.3 203.214 56.928 202.974C56.556 202.722 56.01 202.596 55.29 202.596H52.392ZM55.794 210.804C56.562 210.804 57.138 210.678 57.522 210.426C57.918 210.174 58.116 209.784 58.116 209.256C58.116 208.212 57.342 207.69 55.794 207.69H52.392V210.804H55.794ZM69.3597 213.216C68.0517 213.216 66.8697 212.934 65.8137 212.37C64.7697 211.806 63.9477 211.032 63.3477 210.048C62.7597 209.052 62.4657 207.936 62.4657 206.7C62.4657 205.464 62.7597 204.354 63.3477 203.37C63.9477 202.374 64.7697 201.594 65.8137 201.03C66.8697 200.466 68.0517 200.184 69.3597 200.184C70.6677 200.184 71.8437 200.466 72.8877 201.03C73.9317 201.594 74.7537 202.374 75.3537 203.37C75.9537 204.354 76.2537 205.464 76.2537 206.7C76.2537 207.936 75.9537 209.052 75.3537 210.048C74.7537 211.032 73.9317 211.806 72.8877 212.37C71.8437 212.934 70.6677 213.216 69.3597 213.216ZM69.3597 210.732C70.1037 210.732 70.7757 210.564 71.3757 210.228C71.9757 209.88 72.4437 209.4 72.7797 208.788C73.1277 208.176 73.3017 207.48 73.3017 206.7C73.3017 205.92 73.1277 205.224 72.7797 204.612C72.4437 204 71.9757 203.526 71.3757 203.19C70.7757 202.842 70.1037 202.668 69.3597 202.668C68.6157 202.668 67.9437 202.842 67.3437 203.19C66.7437 203.526 66.2697 204 65.9217 204.612C65.5857 205.224 65.4177 205.92 65.4177 206.7C65.4177 207.48 65.5857 208.176 65.9217 208.788C66.2697 209.4 66.7437 209.88 67.3437 210.228C67.9437 210.564 68.6157 210.732 69.3597 210.732ZM84.5472 213.216C83.2392 213.216 82.0572 212.934 81.0012 212.37C79.9572 211.806 79.1352 211.032 78.5352 210.048C77.9472 209.052 77.6532 207.936 77.6532 206.7C77.6532 205.464 77.9472 204.354 78.5352 203.37C79.1352 202.374 79.9572 201.594 81.0012 201.03C82.0572 200.466 83.2392 200.184 84.5472 200.184C85.8552 200.184 87.0312 200.466 88.0752 201.03C89.1192 201.594 89.9412 202.374 90.5412 203.37C91.1412 204.354 91.4412 205.464 91.4412 206.7C91.4412 207.936 91.1412 209.052 90.5412 210.048C89.9412 211.032 89.1192 211.806 88.0752 212.37C87.0312 212.934 85.8552 213.216 84.5472 213.216ZM84.5472 210.732C85.2912 210.732 85.9632 210.564 86.5632 210.228C87.1632 209.88 87.6312 209.4 87.9672 208.788C88.3152 208.176 88.4892 207.48 88.4892 206.7C88.4892 205.92 88.3152 205.224 87.9672 204.612C87.6312 204 87.1632 203.526 86.5632 203.19C85.9632 202.842 85.2912 202.668 84.5472 202.668C83.8032 202.668 83.1312 202.842 82.5312 203.19C81.9312 203.526 81.4572 204 81.1092 204.612C80.7732 205.224 80.6052 205.92 80.6052 206.7C80.6052 207.48 80.7732 208.176 81.1092 208.788C81.4572 209.4 81.9312 209.88 82.5312 210.228C83.1312 210.564 83.8032 210.732 84.5472 210.732ZM98.2227 208.05L96.5307 209.814V213H93.6327V200.4H96.5307V206.286L102.111 200.4H105.351L100.131 206.016L105.657 213H102.255L98.2227 208.05ZM110.833 213.216C109.837 213.216 108.871 213.084 107.935 212.82C107.011 212.544 106.267 212.19 105.703 211.758L106.693 209.562C107.233 209.958 107.875 210.276 108.619 210.516C109.363 210.756 110.107 210.876 110.851 210.876C111.679 210.876 112.291 210.756 112.687 210.516C113.083 210.264 113.281 209.934 113.281 209.526C113.281 209.226 113.161 208.98 112.921 208.788C112.693 208.584 112.393 208.422 112.021 208.302C111.661 208.182 111.169 208.05 110.545 207.906C109.585 207.678 108.799 207.45 108.187 207.222C107.575 206.994 107.047 206.628 106.603 206.124C106.171 205.62 105.955 204.948 105.955 204.108C105.955 203.376 106.153 202.716 106.549 202.128C106.945 201.528 107.539 201.054 108.331 200.706C109.135 200.358 110.113 200.184 111.265 200.184C112.069 200.184 112.855 200.28 113.623 200.472C114.391 200.664 115.063 200.94 115.639 201.3L114.739 203.514C113.575 202.854 112.411 202.524 111.247 202.524C110.431 202.524 109.825 202.656 109.429 202.92C109.045 203.184 108.853 203.532 108.853 203.964C108.853 204.396 109.075 204.72 109.519 204.936C109.975 205.14 110.665 205.344 111.589 205.548C112.549 205.776 113.335 206.004 113.947 206.232C114.559 206.46 115.081 206.82 115.513 207.312C115.957 207.804 116.179 208.47 116.179 209.31C116.179 210.03 115.975 210.69 115.567 211.29C115.171 211.878 114.571 212.346 113.767 212.694C112.963 213.042 111.985 213.216 110.833 213.216ZM58.116 232.624V235H48.594V233.11L53.454 228.52C53.97 228.028 54.318 227.608 54.498 227.26C54.678 226.9 54.768 226.546 54.768 226.198C54.768 225.694 54.594 225.31 54.246 225.046C53.91 224.77 53.412 224.632 52.752 224.632C52.2 224.632 51.702 224.74 51.258 224.956C50.814 225.16 50.442 225.472 50.142 225.892L48.018 224.524C48.51 223.792 49.188 223.222 50.052 222.814C50.916 222.394 51.906 222.184 53.022 222.184C53.958 222.184 54.774 222.34 55.47 222.652C56.178 222.952 56.724 223.384 57.108 223.948C57.504 224.5 57.702 225.154 57.702 225.91C57.702 226.594 57.558 227.236 57.27 227.836C56.982 228.436 56.424 229.12 55.596 229.888L52.698 232.624H58.116ZM64.684 235.216C63.64 235.216 62.71 234.958 61.894 234.442C61.078 233.926 60.436 233.182 59.968 232.21C59.512 231.226 59.284 230.056 59.284 228.7C59.284 227.344 59.512 226.18 59.968 225.208C60.436 224.224 61.078 223.474 61.894 222.958C62.71 222.442 63.64 222.184 64.684 222.184C65.728 222.184 66.658 222.442 67.474 222.958C68.29 223.474 68.926 224.224 69.382 225.208C69.85 226.18 70.084 227.344 70.084 228.7C70.084 230.056 69.85 231.226 69.382 232.21C68.926 233.182 68.29 233.926 67.474 234.442C66.658 234.958 65.728 235.216 64.684 235.216ZM64.684 232.75C65.452 232.75 66.052 232.42 66.484 231.76C66.928 231.1 67.15 230.08 67.15 228.7C67.15 227.32 66.928 226.3 66.484 225.64C66.052 224.98 65.452 224.65 64.684 224.65C63.928 224.65 63.328 224.98 62.884 225.64C62.452 226.3 62.236 227.32 62.236 228.7C62.236 230.08 62.452 231.1 62.884 231.76C63.328 232.42 63.928 232.75 64.684 232.75ZM76.2554 222.4V235H73.3394V224.74H70.8194V222.4H76.2554ZM82.8722 222.184C84.6362 222.184 86.0162 222.724 87.0122 223.804C88.0082 224.872 88.5062 226.414 88.5062 228.43C88.5062 229.858 88.2362 231.082 87.6962 232.102C87.1682 233.122 86.4182 233.896 85.4462 234.424C84.4742 234.952 83.3522 235.216 82.0802 235.216C81.4082 235.216 80.7662 235.144 80.1542 235C79.5422 234.844 79.0202 234.628 78.5882 234.352L79.6682 232.21C80.2802 232.63 81.0662 232.84 82.0262 232.84C83.0942 232.84 83.9402 232.528 84.5642 231.904C85.1882 231.268 85.5242 230.356 85.5722 229.168C84.8162 229.924 83.7722 230.302 82.4402 230.302C81.6362 230.302 80.9042 230.14 80.2442 229.816C79.5842 229.492 79.0622 229.036 78.6782 228.448C78.2942 227.848 78.1022 227.158 78.1022 226.378C78.1022 225.538 78.3122 224.8 78.7322 224.164C79.1522 223.528 79.7222 223.042 80.4422 222.706C81.1742 222.358 81.9842 222.184 82.8722 222.184ZM83.0882 228.124C83.7242 228.124 84.2402 227.95 84.6362 227.602C85.0442 227.242 85.2482 226.786 85.2482 226.234C85.2482 225.682 85.0502 225.232 84.6542 224.884C84.2702 224.536 83.7362 224.362 83.0522 224.362C82.4282 224.362 81.9182 224.53 81.5222 224.866C81.1382 225.202 80.9462 225.658 80.9462 226.234C80.9462 226.81 81.1382 227.272 81.5222 227.62C81.9182 227.956 82.4402 228.124 83.0882 228.124Z" fill="#1C2A39"/>
<defs>
<filter id="filter0_d" x="0" y="0" width="185" height="327" filterUnits="userSpaceOnUse" color-interpolation-filters="sRGB">
<feFlood flood-opacity="0" result="BackgroundImageFix"/>
<feColorMatrix in="SourceAlpha" type="matrix" values="0 0 0 0 0 0 0 0 0 0 0 0 0 0 0 0 0 0 127 0"/>
<feOffset dy="24"/>
<feGaussianBlur stdDeviation="18"/>
<feColorMatrix type="matrix" values="0 0 0 0 0.207843 0 0 0 0 0.192157 0 0 0 0 0.329412 0 0 0 0.28 0"/>
<feBlend mode="normal" in2="BackgroundImageFix" result="effect1_dropShadow"/>
<feBlend mode="normal" in="SourceGraphic" in2="effect1_dropShadow" result="shape"/>
</filter>
</defs>
</svg>
